<?xml version="1.0" encoding="utf-8"?>
<!-- Generator: Adobe Illustrator 15.0.0, SVG Export Plug-In . SVG Version: 6.00 Build 0)  -->
<!DOCTYPE svg PUBLIC "-//W3C//DTD SVG 1.1//EN" "http://www.w3.org/Graphics/SVG/1.1/DTD/svg11.dtd">
<svg version="1.1" id="Layer_1" xmlns="http://www.w3.org/2000/svg" xmlns:xlink="http://www.w3.org/1999/xlink" x="0px" y="0px"
	 width="517px" height="113.413px" viewBox="0 0 517 113.413" style="enable-background:new 0 0 517 113.413;" xml:space="preserve"
	>
<style type="text/css">
<![CDATA[
	.st0{fill:none;stroke:#CE445E;stroke-width:0.9472;stroke-miterlimit:2.6131;}
	.st1{fill-rule:evenodd;clip-rule:evenodd;fill:#F8E136;stroke:#222222;stroke-width:2.7905;stroke-miterlimit:2.6131;}
	.st2{fill-rule:evenodd;clip-rule:evenodd;fill:#222222;}
	.st3{fill-rule:evenodd;clip-rule:evenodd;fill:#FFFFFF;stroke:#222222;stroke-width:1.3953;stroke-miterlimit:2.6131;}
]]>
</style>
<g>
	<polygon class="st1" points="215.07,30.773 196.127,33.962 196.127,33.962 196.211,34.284 169.794,73.097 177.754,114.347 
		214.792,141.534 225.583,139.77 350.825,117.979 332.159,10.408 215.07,30.773 	"/>
	<path class="st3" d="M189.44,91.038c0.668,2.577-0.984,5.411-3.539,6.073c-2.875,0.745-5.695-0.93-6.362-3.508
		c-0.751-2.899,0.901-5.732,3.775-6.478C185.869,86.464,188.689,88.139,189.44,91.038L189.44,91.038z"/>
	<path class="st0" d="M214.792,141.534L214.792,141.534L214.792,141.534z"/>
	<path class="st2" d="M211.902,64.594l-0.849-4.592l1.361-0.009c1.917-0.497,4.791-1.241,5.139,1.418
		c0.5,1.933-2.055,2.595-4.291,3.174L211.902,64.594L211.902,64.594z M201.647,86.845l20.221-3.52
		c7.513-1.259,14.761-4.855,13.731-11.464c-0.682-3.948-3.905-5.863-8.794-6.315l-0.083-0.322c3.666-1.638,4.915-4.711,4.566-7.371
		c-1.28-7.575-9.767-7.439-17.919-6.014l-17.346,2.775L201.647,86.845L201.647,86.845z M213.335,71.442l1.277-0.331
		c2.64-0.34,6.236-0.928,6.904,1.649c0.348,2.66-3.249,3.248-5.804,3.91l-1.68,0.091L213.335,71.442L213.335,71.442z"/>
	<polygon class="st2" points="233.591,48.319 261.325,43.54 262.855,52.081 250.149,54.342 250.664,57.646 262.413,55.634 
		263.86,63.853 252.111,65.865 252.626,69.169 265.972,66.743 267.587,75.606 239.13,80.228 233.591,48.319 	"/>
	<path class="st2" d="M271.457,62.916l0.806,0.479c2.973,0.949,6.264,1.815,9.861,1.227c1.278-0.331,3.834-0.993,3.416-2.604
		c-0.014-1.371-2.015-1.197-3.695-1.105l-3.041,0.101c-6.083,0.201-11.39-1.862-12.322-6.776
		c-1.28-7.575,7.064-13.517,15.939-14.786c4.874-0.919,9.36-0.707,13.694,0.233l-2.788,8.973c-2.569-0.709-5.778-1.253-9.057-0.748
		c-1.36,0.01-3.194,0.828-2.859,2.117c0.014,1.371,2.015,1.196,3.375,1.188l3.361-0.184c6.486,0.039,11.792,2.102,12.489,7.421
		c1.279,7.574-6.829,13.112-16.022,14.462c-5.195,1.003-11.361,0.881-16.335,0.107L271.457,62.916L271.457,62.916z"/>
	<polygon class="st2" points="296.17,37.264 327.82,31.813 329.532,42.371 321.296,43.472 324.972,65.552 309.945,68.069 
		306.27,45.99 297.882,47.82 296.17,37.264 	"/>
	<path class="st2" d="M225.333,100.646l-0.849-4.595l0.958-0.247c2.32-0.256,4.875-0.918,5.458,1.336
		c0.265,2.338-1.97,2.917-4.29,3.175L225.333,100.646L225.333,100.646z M214.758,122.979l20.54-3.602
		c7.194-1.176,14.763-4.855,13.413-11.382c-0.682-3.947-3.988-6.184-8.474-6.397l-0.084-0.321c3.347-1.555,4.595-4.629,4.164-7.611
		c-1.198-7.252-9.766-7.438-17.599-6.096l-17.583,3.18L214.758,122.979L214.758,122.979z M226.446,107.577l1.278-0.331
		c2.638-0.341,6.471-1.333,6.903,1.648c0.349,2.659-3.249,3.248-5.568,3.506l-1.597,0.414L226.446,107.577L226.446,107.577z"/>
	<path class="st2" d="M285.142,77.588l3.244,19.098c1.698,9.187-5.368,14.798-16.799,16.728
		c-11.666,2.335-19.945-0.678-21.726-10.183l-3.244-19.099l15.027-2.519l3.311,18.049c0.266,2.337,0.85,4.593,4.767,3.922
		c4.235-0.754,3.971-3.092,3.388-5.347l-2.994-18.13L285.142,77.588L285.142,77.588z"/>
	<path class="st2" d="M302.086,74.574l6.086,7.705l0.64-0.166c0.068-1.049,0.457-2.181,0.847-3.313l1.941-5.661l16.943-3.013
		L317.55,90.849l2.229,13.86l-14.709,2.436l-2.228-13.859l-17.701-15.697L302.086,74.574L302.086,74.574z"/>
</g>
</svg>
